<svg xmlns="http://www.w3.org/2000/svg" xmlns:xlink="http://www.w3.org/1999/xlink" width="1000" height="400" viewBox="0 0 1000 400">
<defs>
<linearGradient id="a" x1="0" y1="0" x2="0" y2="100%">
	<stop offset="0" stop-color="rgba(0 0 0/10%)"/>
	<stop offset="1" stop-color="rgba(0 0 0/5%)"/>
</linearGradient>
<linearGradient id="a2" x1="0" y1="0" x2="100%" y2="0">
	<stop offset="0" stop-color="rgba(0 0 0/0%)"/>
	<stop offset=".5" stop-color="rgba(0 0 0/10%)"/>
	<stop offset="1" stop-color="rgba(0 0 0/0%)"/>
</linearGradient>
</defs>
<clipPath id="c">
	<path id="b" transform="translate(400,100)scale(1)" d="M9 91c0 3.7 1.7 7 4.3 9.2 6 4.8 16.7 3.7 16.7 8.8 0 1.7-1.3 3-3 3h-8v-4h-9v13h17c6.6 0 12-5.4 12-12 0-3.7-1.7-7-4.3-9.2C29.9 95.7 18 96.3 18 91c0-1.7 1.3-3 3-3h8v4h9V79H21c-6.6 0-12 5.4-12 12m38 21v9h9l5.2-9zm23.8-16.5H47v9h18.6zM80.2 79H47v9h28.1zm20.9 42V79H90.7l-24.2 42zm-9-26.5V112H82zM110 91v18c0 6.6 5.4 12 12 12h18v-16.5h-9v7.5h-9c-1.7 0-3-1.3-3-3V91c0-1.7 1.3-3 3-3h18v-9h-18c-6.6 0-12 5.4-12 12m70.6-12L170 97.4 159.4 79H149v42h9V94.6l12 20.8L191 79zm1.4 33.6v8.4h9V97z"/>
</clipPath>
<use xlink:href="#b" fill="url(#a)"/>
<style>
#d{animation:x 3000ms linear infinite;}
@keyframes x{
	0%{transform:translateX(-50%);opcity:0;}
	50%{opcity:1;}
	100%{transform:translateX(150%);opacity:0;}
}
</style>
<g clip-path="url(#c)"><rect id="d" fill="url(#a2)" width="50%" height="100%"/></g>
</svg>