<svg xmlns="http://www.w3.org/2000/svg" xmlns:xlink="http://www.w3.org/1999/xlink" viewBox="0 0 640 320">
    <defs>
        <linearGradient id="a" x1="0" y1="0" x2="100%" y2="0">
            <stop offset="0" stop-color="#0dccf2" stop-opacity=".7"/>
            <stop offset="1" stop-color="#0dccf2"/>
        </linearGradient>
        <linearGradient id="b" x1="0" y1="0" x2="100%" y2="0">
            <stop offset="0" stop-color="#fa0" stop-opacity=".7"/>
            <stop offset="1" stop-color="#fa0"/>
        </linearGradient>
        <linearGradient id="c" x1="0" y1="0" x2="100%" y2="0">
            <stop offset="0" stop-color="#f44725" stop-opacity=".7"/>
            <stop offset="1" stop-color="#f44725"/>
        </linearGradient>
        <linearGradient id="d" x1="0" y1="0" x2="100%" y2="0">
            <stop offset="0" stop-color="#26d926" stop-opacity=".7"/>
            <stop offset="1" stop-color="#26d926"/>
        </linearGradient>
        <linearGradient id="e" x1="0" y1="0" x2="100%" y2="0">
            <stop offset="0" stop-color="#993df5" stop-opacity=".7"/>
            <stop offset="1" stop-color="#993df5"/>
        </linearGradient>
        <linearGradient id="y" x1="586" y1="288" x2="630" y2="288" gradientUnits="userSpaceOnUse">
            <stop offset="0" stop-opacity=".5"/>
            <stop offset="1" stop-opacity=".7"/>
        </linearGradient>
        <linearGradient id="z" x1="586" y1="288" x2="630" y2="288" gradientUnits="userSpaceOnUse">
            <stop offset="0" stop-color="#fff" stop-opacity=".5"/>
            <stop offset="1" stop-color="#fff" stop-opacity=".7"/>
        </linearGradient>
    </defs>
    <path d="M56 20v2H8v-2a8 8 0 0 1 8-8h32a8 8 0 0 1 8 8ZM8 28h48v16a8 8 0 0 1-8 8H16a8 8 0 0 1-8-8Zm24 6a2 2 0 0 0 2 2h16a2 2 0 0 0 0-4H34a2 2 0 0 0-2 2Z" fill="url(#a)"/>
    <path d="M120 24h-20a8 8 0 0 0 0 16h20v4a8 8 0 0 1-8 8H80a8 8 0 0 1-8-8V20a8 8 0 0 1 8-8h32a8 8 0 0 1 8 8Zm-24 8a4 4 0 1 0 4-4 4 4 0 0 0-4 4Z" fill="url(#b)"/>
    <path d="M166 28h18v16a8 8 0 0 1-8 8h-32a8 8 0 0 1-8-8V28h18v12l6-4 6 4Zm10-16h-32a8 8 0 0 0-8 8v2h48v-2a8 8 0 0 0-8-8Z" fill="url(#c)"/>
    <path d="M200 44a8 8 0 0 0 8 8h32a8 8 0 0 0 8-8V28h-48Zm40-8h4v8h-4Zm-3 0h2v8h-2Zm-2 0h1v8h-1Zm-2 0h1v8h-1Zm-5 0h4v8h-4Zm-2 0h1v8h-1Zm-3 0h2v8h-2Zm25-16v2h-48v-2a8 8 0 0 1 8-8h32a8 8 0 0 1 8 8Z" fill="url(#d)"/>
    <path d="M32 72a24 24 0 1 0 24 24 24 24 0 0 0-24-24Zm10.63 26.68-14.29 7.15a3 3 0 0 1-4.34-2.68v-14.3a3 3 0 0 1 4.34-2.68l14.29 7.15a3 3 0 0 1 0 5.36Z" fill="url(#d)"/>
    <path d="M96 72a24 24 0 1 0 24 24 24 24 0 0 0-24-24Zm9.9 16.63a2 2 0 0 1-2.53 1.27L100 88.77V101a6 6 0 1 1-4-5.65V86a2 2 0 0 1 2.63-1.9l6 2a2 2 0 0 1 1.27 2.53Z" fill="url(#e)"/>
    <path d="M160 72a24 24 0 1 0 24 24 24 24 0 0 0-24-24Zm9.45 33.45a4 4 0 0 1-5.66 0l-4.35-4.35a8 8 0 0 1-9.79-9.79l4.68 4.69 4.46-1.19 1.21-4.48-4.67-4.68a8 8 0 0 1 9.79 9.79l4.35 4.35a4 4 0 0 1-.02 5.66Z" fill="url(#b)"/>
    <path d="M224 72a24 24 0 1 0 24 24 24 24 0 0 0-24-24Zm0 34-12-12 6-6h12l6 6Z" fill="url(#c)"/>
    <path d="M308.79 91.33a10 10 0 1 0-14.58-13.59 2 2 0 0 1-1.93.72 20.14 20.14 0 0 0-8.56 0 2 2 0 0 1-1.93-.72 10 10 0 1 0-14.58 13.59 2 2 0 0 1 .59 2 20.68 20.68 0 0 0-.59 8.6A21 21 0 0 0 309 99a20.91 20.91 0 0 0-.8-5.69 2 2 0 0 1 .59-1.98Zm-13 7.4-9.05 10.91A1 1 0 0 1 285 109v-9a1 1 0 0 0-1-1h-3a1 1 0 0 1-.77-1.69l9.05-10.91a1 1 0 0 1 1.76.67v9a1 1 0 0 0 1 1H295a1 1 0 0 1 .76 1.66Z" fill="url(#a)"/>
    <path d="M352 72a24 24 0 1 0 24 24 24 24 0 0 0-24-24Zm0 36a10 10 0 0 1-10-9.9 9.81 9.81 0 0 1 2.77-6.84C346 94.77 348 96 351 96c0 0-3.36-3-3-7a5.2 5.2 0 0 1 3.63-5c-.51 3.19 3.76 4.31 3.76 4.31 5.38 2.37 6.63 5.46 6.63 9.79A10 10 0 0 1 352 108Z" fill="url(#c)"/>
    <path d="M416 72a24 24 0 1 0 24 24 24 24 0 0 0-24-24Zm8.19 21.94v3.49H419l-.68 1.21v1.08h5.91v3.35h-5.91v4.71H413v-4.71h-6v-3.35h6v-1.08l-.67-1.21h-5.24l-.09-3.49h4.3L407 84h5.51L416 94.34 419.63 84H425l-4.3 9.94Z" fill="url(#c)"/>
    <path d="M480 72a24 24 0 0 0-24 24 24 24 0 0 0 48 0 24 24 0 0 0-24-24Zm0 38a14 14 0 1 1 14-14 14 14 0 0 1-14 14Zm-6.13-10.58h12.91a6.46 6.46 0 1 1-12.91 0Zm-.28-3.63a1 1 0 0 1-.45-1.89l2.33-1.17-2.57-1.39a1 1 0 0 1 1-1.76l3.34 1.82a1.52 1.52 0 0 1 .81 1.38 1.55 1.55 0 0 1-.85 1.35l-3.2 1.56a1 1 0 0 1-.41.1Zm2.66-2.63Zm10.81 2.63a1 1 0 0 1-.44-.1l-3.13-1.56a1.55 1.55 0 0 1-.85-1.35 1.52 1.52 0 0 1 .81-1.38l3.34-1.82a1 1 0 0 1 1 1.76l-2.57 1.39 2.33 1.17a1 1 0 0 1-.45 1.89Z" fill="url(#b)"/>
    <path d="M548.6 101c-.8 3.3-6.3 1.5-8.1 1.1l1.4-5.8c1.8.4 7.5 1.3 6.7 4.7m-4.7-12.6-1.3 5.3c1.5.4 6.1 1.9 6.8-1.1.8-3.2-4-3.9-5.5-4.2m23.4 13.4c-3.2 12.9-16.2 20.7-29.1 17.5s-20.7-16.2-17.5-29.1 16.2-20.7 29.1-17.5 20.7 16.2 17.5 29.1m-18-15.3 1.1-4.3-2.6-.7-1.1 4.2c-.7-.2-1.4-.3-2.1-.5l1.1-4.2-2.7-.6-1.1 4.3c-.6-.1-1.1-.3-1.7-.4l-3.6-.9-.7 2.8s2 .4 1.9.5c1.1.3 1.3 1 1.2 1.5l-3 11.9c-.1.3-.5.8-1.2.6l-1.9-.5-1.3 3 3.4.9c.6.2 1.3.3 1.9.5l-1.1 4.4 2.6.7 1.1-4.3c.7.2 1.4.4 2.1.5l-1.1 4.3 2.6.7 1.1-4.4c4.5.8 7.9.5 9.3-3.6 1.1-3.3-.1-5.2-2.4-6.4 1.7-.4 3-1.5 3.4-3.9.6-3.2-1.9-4.9-5.2-6.1" fill="url(#b)"/>
    <path d="m55.21 173.28-2.55-28a8 8 0 0 0-8-7.28H19.31a8 8 0 0 0-8 7.28l-2.55 28a8 8 0 0 0 8 8.72h30.48a8 8 0 0 0 7.97-8.72ZM32 158a12 12 0 0 1-12-12 2 2 0 0 1 4 0 8 8 0 0 0 16 0 2 2 0 0 1 4 0 12 12 0 0 1-12 12Z" fill="url(#b)"/>
    <path d="M112 144h-4v-4a2 2 0 0 0-4 0v4H88v-4a2 2 0 0 0-4 0v4h-4a8 8 0 0 0-8 8v16a8 8 0 0 0 8 8h32a8 8 0 0 0 8-8v-16a8 8 0 0 0-8-8Zm-22 18h-2v2a2 2 0 0 1-4 0v-2h-2a2 2 0 0 1 0-4h2v-2a2 2 0 0 1 4 0v2h2a2 2 0 0 1 0 4Zm13 4a3 3 0 1 1 3-3 3 3 0 0 1-3 3Zm6-6a3 3 0 1 1 3-3 3 3 0 0 1-3 3Z" fill="url(#a)"/>
    <path d="M176 144h-32a8 8 0 0 0-8 8v16a8 8 0 0 0 8 8h10c2 0 4 2 6 4 2-2 4-4 6-4h10a8 8 0 0 0 8-8v-16a8 8 0 0 0-8-8Zm-30 10h20a2 2 0 0 1 0 4h-20a2 2 0 0 1 0-4Zm28 12h-28a2 2 0 0 1 0-4h28a2 2 0 0 1 0 4Z" fill="url(#d)"/>
    <path d="M240 166h-1a18 18 0 1 0-30 0h-1a6 6 0 0 0-6 6v4a6 6 0 0 0 6 6h32a6 6 0 0 0 6-6v-4a6 6 0 0 0-6-6Zm-16-14a4 4 0 1 1-4 4 4 4 0 0 1 4-4Zm18 24.1a1.9 1.9 0 0 1-1.9 1.9h-32.2a1.9 1.9 0 0 1-1.9-1.9v-.2a1.9 1.9 0 0 1 1.9-1.9h32.2a1.9 1.9 0 0 1 1.9 1.9Z" fill="url(#e)"/>
    <path d="M304 144h-10.66l4.15-4.67a2 2 0 1 0-3-2.66L288 144l-6.51-7.32a2 2 0 0 0-3 2.66l4.15 4.67H272a8 8 0 0 0-8 8v16a8 8 0 0 0 8 8h32a8 8 0 0 0 8-8V152a8 8 0 0 0-8-8Zm-10.15 17.85-9.85 4.93a2.07 2.07 0 0 1-3-1.85v-9.86a2.07 2.07 0 0 1 3-1.85l9.85 4.93a2.07 2.07 0 0 1 0 3.7Z" fill="url(#a)"/>
    <path d="m370 145.7-12.7-4.62h-.09A6 6 0 0 0 352 138h-14a6 6 0 0 0-6 6v26a6 6 0 0 0 6 6h4.43a5.76 5.76 0 0 0 1.8 1.05l12.7 4.62a6 6 0 0 0 7.69-3.58l9-24.68a6 6 0 0 0-3.62-7.71Zm-18 15.94a4.35 4.35 0 0 1-6.19 1.63l.91 3.06a.5.5 0 0 1-.46.65h-2.34a.49.49 0 0 1-.46-.65l.9-3.06a4.35 4.35 0 0 1-6.19-1.63 4.87 4.87 0 0 1 .86-5.72l5.49-5.71a.72.72 0 0 1 .53-.23h.09a.65.65 0 0 1 .5.21l5.5 5.72a4.84 4.84 0 0 1 .86 5.73Zm17.17-8.53-8.13 22.33a3 3 0 0 1-3.84 1.79l-3.87-1.4A6 6 0 0 0 358 170v-24.15l9.39 3.41a3 3 0 0 1 1.79 3.85Z" fill="url(#e)"/>
    <path d="m438.33 148.74-4.33 3.92V150a8 8 0 0 0-8-8h-26a8 8 0 0 0-8 8v20a8 8 0 0 0 8 8h26a8 8 0 0 0 8-8v-2.15l4.33 3.92A1 1 0 0 0 440 171v-21.52a1 1 0 0 0-1.67-.74ZM406 160a6 6 0 1 1 6-6 6 6 0 0 1-6 6Z" fill="url(#e)"/>
    <path d="M46 212h-2v-6a6 6 0 0 0-6-6H22a6 6 0 0 0-6 6v36a6 6 0 0 0 6 6h16a6 6 0 0 0 6-6v-6h2a8 8 0 0 0 8-8v-8a8 8 0 0 0-8-8Zm-6 30a2 2 0 0 1-2 2H22a2 2 0 0 1-2-2v-36a2 2 0 0 1 2-2h1a1 1 0 0 1 1 1 1 1 0 0 0 1 1h10a1 1 0 0 0 1-1 1 1 0 0 1 1-1h1a2 2 0 0 1 2 2v6h-2a8 8 0 0 0-8 8v8a8 8 0 0 0 8 8h2Zm3.5-11.69V232h-3v-1.62A7.83 7.83 0 0 1 37 229l1.66-2.29a5.53 5.53 0 0 0 3.09 1.1c1.12 0 1.57-.33 1.57-1.1 0-1.58-5.78-1.8-5.78-5.26a3.65 3.65 0 0 1 3-3.66V216h3v1.58a6.15 6.15 0 0 1 3.39 1.66L45 221.18a3.59 3.59 0 0 0-2.33-1c-1 0-1.43.23-1.43 1 0 1.51 5.78 1.58 5.78 5.18-.02 1.97-1.18 3.46-3.52 3.95Z" fill="url(#a)"/>
    <path d="M110 212h-2v-6a6 6 0 0 0-6-6H86a6 6 0 0 0-6 6v36a6 6 0 0 0 6 6h16a6 6 0 0 0 6-6v-6h2a8 8 0 0 0 8-8v-8a8 8 0 0 0-8-8Zm-6 0h-2a8 8 0 0 0-8 8v8a8 8 0 0 0 8 8h2v6a2 2 0 0 1-2 2H86a2 2 0 0 1-2-2v-36a2 2 0 0 1 2-2h1a1 1 0 0 1 1 1 1 1 0 0 0 1 1h10a1 1 0 0 0 1-1 1 1 0 0 1 1-1h1a2 2 0 0 1 2 2Zm-1 13.5v3a1.5 1.5 0 0 1-3 0v-3a1.5 1.5 0 0 1 3 0Zm4.5 3a1.5 1.5 0 0 1-3 0v-6a1.5 1.5 0 0 1 3 0Zm4.5 0a1.5 1.5 0 0 1-3 0v-9a1.5 1.5 0 0 1 3 0Z" fill="url(#a)"/>
    <path d="M178 214h-6v-8a6 6 0 0 0-6-6h-16a6 6 0 0 0-6 6v36a6 6 0 0 0 6 6h16a6 6 0 0 0 6-6v-8h6a6 6 0 0 0 6-6v-8a6 6 0 0 0-6-6Zm-20 12a2 2 0 0 1 0-4h2v-2a2 2 0 0 1 4 0v2h2a2 2 0 0 1 0 4h-2v2a2 2 0 0 1-4 0v-2Zm10-12h-10a6 6 0 0 0-6 6v8a6 6 0 0 0 6 6h10v8a2 2 0 0 1-2 2h-16a2 2 0 0 1-2-2v-36a2 2 0 0 1 2-2h1a1 1 0 0 1 1 1 1 1 0 0 0 1 1h10a1 1 0 0 0 1-1 1 1 0 0 1 1-1h1a2 2 0 0 1 2 2Zm6 14a2 2 0 1 1 2-2 2 2 0 0 1-2 2Zm4-4a2 2 0 1 1 2-2 2 2 0 0 1-2 2Z" fill="url(#e)"/>
    <path d="M242.42 224.26a2 2 0 1 1-2-2 2 2 0 0 1 2 2ZM248 220v8a6 6 0 0 1-6 6h-6v8a6 6 0 0 1-6 6h-16a6 6 0 0 1-6-6v-36a6 6 0 0 1 6-6h16a6 6 0 0 1 6 6v8h6a6 6 0 0 1 6 6Zm-16-14a2 2 0 0 0-2-2h-1a1 1 0 0 0-1 1 1 1 0 0 1-1 1h-10a1 1 0 0 1-1-1 1 1 0 0 0-1-1h-1a2 2 0 0 0-2 2v36a2 2 0 0 0 2 2h16a2 2 0 0 0 2-2v-8h-10a6 6 0 0 1-6-6v-8a6 6 0 0 1 6-6h10Zm-8.49 20v1.76a1.75 1.75 0 0 0 3.5 0V226h1.76a1.75 1.75 0 0 0 0-3.5H227v-1.76a1.75 1.75 0 0 0-3.5 0v1.76h-1.76a1.75 1.75 0 0 0 0 3.5Zm21.91-1.75a5 5 0 1 0-5 5 5 5 0 0 0 5-4.99Z" fill="url(#d)"/>
    <path d="M366 202h-28a8 8 0 0 0-8 8v28a8 8 0 0 0 8 8h28a8 8 0 0 0 8-8v-28a8 8 0 0 0-8-8Zm-26 38a4 4 0 1 1 4-4 4 4 0 0 1-4 4Zm10-2a2 2 0 0 1-2-2 8 8 0 0 0-8-8 2 2 0 0 1 0-4 12 12 0 0 1 12 12 2 2 0 0 1-2 2Zm8 0a2 2 0 0 1-2-2 16 16 0 0 0-16-16 2 2 0 0 1 0-4 20 20 0 0 1 20 20 2 2 0 0 1-2 2Z" fill="url(#c)"/>
    <path d="M622 266h-28a8 8 0 0 0-8 8v28a8 8 0 0 0 8 8h28a8 8 0 0 0 8-8v-28a8 8 0 0 0-8-8Zm-28 16a4 4 0 1 1 4 4 4 4 0 0 1-4-4Zm29.14 22h-30.28c-.82 0-1.1-.55-.63-1.23l6.61-9.43a1 1 0 0 1 1.72 0l3.59 5.12 7.41-10.46a1 1 0 0 1 1.73 0l10.48 14.77c.47.68.23 1.23-.63 1.23Z" fill="url(#y)"/>
    <path d="M622 266h-28a8 8 0 0 0-8 8v28a8 8 0 0 0 8 8h28a8 8 0 0 0 8-8v-28a8 8 0 0 0-8-8Zm-28 16a4 4 0 1 1 4 4 4 4 0 0 1-4-4Zm29.14 22h-30.28c-.82 0-1.1-.55-.63-1.23l6.61-9.43a1 1 0 0 1 1.72 0l3.59 5.12 7.41-10.46a1 1 0 0 1 1.73 0l10.48 14.77c.47.68.23 1.23-.63 1.23Z" fill="url(#z)"/>
</svg>