<svg xmlns="http://www.w3.org/2000/svg" xml:space="preserve" viewBox="0 0 640 320">
<path id="PC" d="M51.6 10.2H12.4c-2.4 0-4.4 2-4.4 4.4v26.2c0 2.4 2 4.4 4.4 4.4h15.3v4.4h-2.2c-1.2 0-2.2 1-2.2 2.2s1 2.2 2.2 2.2h13.1c1.2 0 2.2-1 2.2-2.2s-1-2.2-2.2-2.2h-2.2v-4.4h15.3c2.4 0 4.4-2 4.4-4.4V14.5c-.1-2.4-2.1-4.3-4.5-4.3zm-2.1 30.5h-35c-1.2 0-2.2-1-2.2-2.2V16.7c0-1.2 1-2.2 2.2-2.2h34.9c1.2 0 2.2 1 2.2 2.2v21.8c0 1.2-.9 2.2-2.1 2.2z"/>
<path id="webgame" d="M95.3 46.5c-7.6-.4-13.8-6.8-13.8-14.5 0-8 6.5-14.5 14.5-14.5 7.7 0 14.1 6.2 14.5 13.8l-5.1-1.6c-1-4.2-4.8-7.4-9.4-7.4-5.3 0-9.7 4.4-9.7 9.7 0 4.6 3.1 8.5 7.5 9.4l1.5 5.1zM120.2 32c0 .7 0 1.5-.1 2.2l-4.7-1.4v-.7c0-10.6-8.7-19.3-19.3-19.3S76.7 21.4 76.7 32 85.4 51.3 96 51.3h.7l1.4 4.7c-.7.1-1.4.1-2.2.1-13.3 0-24.2-10.9-24.2-24.2S82.7 7.8 96 7.8s24.2 10.9 24.2 24.2zm-9.1 10.3 5.4-1.8c1.1-.4 1.1-1.9 0-2.3l-18.4-5.6c-1-.2-1.8.6-1.4 1.5l5.4 18.5c.4 1.1 1.9 1.2 2.3 0l1.8-5.4 9.4 9.4c.5.5 1.2.5 1.7 0l3-3c.5-.5.5-1.2 0-1.7l-9.2-9.6z"/>
<path id="facebook" d="M184 32.1C184 18.8 173.2 8 160 8s-24 10.8-24 24.1c0 12 8.8 22.1 20.3 23.9V39.1h-6.1v-7h6.1v-5.3c0-6 3.6-9.4 9.1-9.4 2.6 0 5.4.5 5.4.5v6h-3c-3 0-4 1.9-4 3.7v4.6h6.6l-1.1 7h-5.6V56c11.5-1.8 20.3-11.8 20.3-23.9"/>
<path id="mobile" d="M232.7 8h-17.5c-3.1 0-5.5 2.4-5.5 5.5v37.1c0 3.1 2.4 5.5 5.5 5.5h17.5c3.1 0 5.5-2.4 5.5-5.5V13.5c0-3.1-2.4-5.5-5.5-5.5zM224 53.8c-1.9 0-3.3-1.4-3.3-3.3s1.4-3.3 3.3-3.3 3.3 1.4 3.3 3.3-1.4 3.3-3.3 3.3zm9.8-8.7h-19.6V14.5h19.6v30.6z"/>
<path id="ios" d="M371.8,21.7c-3.5,2.1-5.6,5.9-5.6,9.9c0,4.6,2.8,8.7,7,10.5c-0.8,2.6-2,5.1-3.6,7.4c-2.2,3.2-4.5,6.4-8.1,6.4s-4.4-2.1-8.5-2.1c-4,0-5.4,2.1-8.6,2.1s-5.5-3-8.1-6.6c-3.4-5.1-5.3-11.1-5.4-17.2c0-10.1,6.6-15.5,13-15.5c3.4,0,6.3,2.3,8.5,2.3c2.1,0,5.3-2.4,9.2-2.4C365.6,16.5,369.5,18.4,371.8,21.7z M352.6,16c-0.2,0-0.5,0-0.7-0.1c-0.1-0.3-0.1-0.6-0.1-0.9c0.1-2.6,1.1-5.1,2.9-7c2-2.2,4.7-3.7,7.6-3.9c0.1,0.3,0.1,0.7,0.1,1c-0.1,2.7-1,5.2-2.8,7.2C357.9,14.4,355.4,15.8,352.6,16z"/>
<path id="android" d="M430.3,19.3c-0.1-4.3-3.2-8.1-7.7-10l2.7-3.7c0.1-0.2,0.1-0.5-0.1-0.6c-0.2,0-0.5,0-0.6,0.2l-2.8,3.9c-1.9-0.7-3.9-1-6.1-1c-2,0-4,0.4-5.7,1l-2.8-3.9c-0.1-0.2-0.4-0.2-0.6-0.1s-0.2,0.4-0.1,0.6l2.7,3.7c-4.6,1.9-7.8,5.8-7.7,10.3l28.8-0.1C430.3,19.4,430.3,19.4,430.3,19.3z M409.8,15.5c-0.8,0-1.5-0.6-1.5-1.4c0-0.8,0.7-1.4,1.5-1.4s1.5,0.6,1.5,1.4S410.7,15.5,409.8,15.5z M422,15.5c-0.8,0-1.5-0.6-1.5-1.4c0-0.8,0.7-1.4,1.5-1.4s1.5,0.6,1.5,1.4S422.9,15.5,422,15.5zM401.5,21.9h28.8v23.3c0,1.5-1.2,2.8-2.8,2.8H425v7.9c0,1.7-1.4,3.1-3.1,3.1s-3.1-1.4-3.1-3.1v-8h-5.6v7.9c0,1.7-1.4,3.1-3.1,3.1s-3.1-1.4-3.1-3.1v-7.9h-2.8c-1.5,0-2.8-1.2-2.8-2.8L401.5,21.9L401.5,21.9z M435.6,21.9c-1.7,0-3.1,1.4-3.1,3.1v13.7c0,1.7,1.4,3.1,3.1,3.1s3.1-1.4,3.1-3.1V24.9C438.7,23.2,437.3,21.9,435.6,21.9zM396.4,21.9c-1.7,0-3.1,1.4-3.1,3.1v13.7c0,1.7,1.4,3.1,3.1,3.1s3.1-1.4,3.1-3.1V25C399.5,23.3,398.1,21.9,396.4,21.9z"/>
<path id="web-mobile" d="M462.7 21.2c0-1.2 1-2.2 2.2-2.2h34.7c1.2 0 2.2-1 2.2-2.2 0-1.2-1-2.2-2.2-2.2h-36.8c-2.4 0-4.3 1.9-4.3 4.3v23.8h-1.1c-1.8 0-3.2 1.5-3.2 3.2 0 1.8 1.5 3.2 3.2 3.2h27.1v-6.5h-21.7V21.2zm41.1 2.1h-13c-1.2 0-2.2 1-2.2 2.2v21.7c0 1.2 1 2.2 2.2 2.2h13c1.2 0 2.2-1 2.2-2.2V25.5c0-1.2-1-2.2-2.2-2.2zm-2.1 19.5H493V27.7h8.7v15.1z"/>
<path id="playstation" d="M527.4 41.4c3.1 1.1 6.5 1.3 9.8.8.2 0 .5-.1.6-.1v-3.4l-3.1 1.1c-1.2.4-2.9.5-3.8.2-1-.4-.7-.8.4-1.3l6.6-2.4v-3.7l-9.1 3.2s-2.2.7-3.5 1.7c-1.5 1.2-1 3 2.1 3.9zm19.2 4 13.9-5s1.9-.7 2.6-1.7c.7-1 .5-2.4-2.5-3.4-2.6-1-6-1.3-8.8-1.1-2.8.4-4.7 1-4.7 1l-.4.1v3.8l6.8-2.4c1.2-.4 2.9-.5 3.8-.2 1 .4.7.8-.4 1.3l-9.9 3.7c-.4.2-.4 3.9-.4 3.9zm-7.5-29.6v28.1l6.4 2V22.3c0-1.1.5-1.8 1.3-1.6 1.1.2 1.2 1.3 1.2 2.4v9.4c4 1.9 7.1 0 7.1-5 0-5.2-1.8-7.4-7.2-9.4-2.2-.6-6.1-1.8-8.8-2.3zM568 32c0 13.2-10.8 24-24 24s-24-10.8-24-24 10.8-24 24-24 24 10.8 24 24z"/>
<path id="xbox" d="M608 27.2s.1.1 0 0c7.2 5.5 19.6 19 15.8 22.8-4.3 3.7-9.8 6-15.8 6s-11.5-2.3-15.8-5.9c-3.8-3.8 8.6-17.4 15.8-22.9-.1.1 0 0 0 0m12.5-15.7C616.9 9.3 612.8 8 608 8s-8.9 1.3-12.5 3.5c0 0-.1.1 0 .1h.1c4.7-1 11.8 3 12.4 3.4.7-.4 7.7-4.4 12.4-3.4.1.1.1.1.1-.1.1.1.1 0 0 0m-29.3 3.3c0 .2-.1.2 0 0-4.4 4.4-7.2 10.4-7.2 17.2 0 5.5 1.8 10.6 4.9 14.5 0 0 .1.1.1 0v-.1c-1.8-5.6 7.6-19.4 12.4-25.1v-.2c-7.3-7.2-9.8-6.4-10.2-6.3m23.4 6.4v.1c4.8 5.8 14.2 19.4 12.4 25.1v.1h.1c3.1-4.1 4.9-9.1 4.9-14.5 0-6.6-2.8-12.7-7.1-17l-.1-.1c-.4-.2-2.9-1-10.2 6.3"/>
<path id="console" d="m57.5 106.9-2.9-20.4c-.7-5.3-5.3-9.1-10.6-9.1H19.9c-5.3 0-9.8 3.9-10.6 9.1l-2.9 20.4c-.6 4.1 2.6 7.8 6.7 7.8 1.8 0 3.5-.7 4.8-2l6-6h16l6 6c1.3 1.3 3 2 4.8 2 4.3 0 7.4-3.7 6.8-7.8zM29.3 93.3H24v5.3h-2.7v-5.3H16v-2.7h5.3v-5.3H24v5.3h5.3v2.7zM40 90.7c-1.5 0-2.7-1.2-2.7-2.7s1.2-2.7 2.7-2.7 2.7 1.2 2.7 2.7-1.2 2.7-2.7 2.7zm5.3 8c-1.5 0-2.7-1.2-2.7-2.7s1.2-2.7 2.7-2.7c1.5 0 2.7 1.2 2.7 2.7s-1.2 2.7-2.7 2.7z"/>
<path id="cross-platforms" d="M119.8 93.9H109c-1.2 0-2.2 1-2.2 2.2v19.5c0 1.2 1 2.2 2.2 2.2h10.8c1.2 0 2.2-1 2.2-2.2V96c0-1.2-1-2.1-2.2-2.1zm0 19.4H109V98.2h10.8v15.1zm-6.5-39h-39c-2.4 0-4.3 1.9-4.3 4.3v26c0 2.4 1.9 4.3 4.3 4.3h15.2v4.3h-2.2c-1.2 0-2.2 1-2.2 2.2s1 2.2 2.2 2.2h13c1.2 0 2.2-1 2.2-2.2s-1-2.2-2.2-2.2h-2.2V109h2.2c1.2 0 2.2-1 2.2-2.2s-1-2.2-2.2-2.2H76.5c-1.2 0-2.2-1-2.2-2.2V80.8c0-1.2 1-2.2 2.2-2.2h34.7c1.2 0 2.2 1 2.2 2.2v6.5c0 1.2 1 2.2 2.2 2.2s2.2-1 2.2-2.2v-8.7c-.1-2.3-2.1-4.3-4.5-4.3zM95.9 89.5 93.8 83l-2.1 6.5h-6.6l5.4 3.8-2 6.3 5.4-3.9 5.4 3.9-2-6.3 5.4-3.8h-6.8z"/>
<path id="switch" d="M158.9 74h-9.6C143 74 138 79 138 85.3v21.4c0 6.3 5.1 11.3 11.3 11.3h9.6c.2 0 .3-.1.3-.3V74.3c0-.2-.1-.3-.3-.3zm-3.2 40.4h-6.4c-4.3 0-7.7-3.4-7.7-7.7V85.3c0-4.3 3.4-7.7 7.7-7.7h6.4v36.8zM149 83c2.3 0 4.2 1.9 4.2 4.2s-1.9 4.2-4.2 4.2c-2.3 0-4.2-1.9-4.2-4.2 0-2.3 1.9-4.2 4.2-4.2zm21.7-9h-6.8c-.1 0-.3.1-.3.3v43.2c0 .2.1.3.3.3h6.8c6.3 0 11.3-5 11.3-11.3V85.3c0-6.3-5.1-11.3-11.3-11.3zm1.6 28.5c-2.4 0-4.4-2-4.4-4.4 0-2.4 2-4.4 4.4-4.4s4.4 2 4.4 4.4c0 2.5-2 4.4-4.4 4.4z"/>
<path id="steam" d="M224 72c-12.6 0-22.9 9.7-24 22.1l12.8 5.3c1.1-.7 2.4-1.2 3.8-1.2h.4l5.8-8.3v-.1c0-5 4.1-9 9-9s9 4.1 9 9-4.1 9-9 9h-.2l-8.2 5.9v.4c0 3.7-3 6.8-6.8 6.8-3.2 0-6-2.4-6.6-5.4l-9.2-3.8c3.1 10 12.2 17.4 23.3 17.4 13.2 0 24-10.8 24-24S237.3 72 224 72zm-8.9 36.5-2.9-1.2c.5 1.1 1.4 2 2.6 2.5 2.5 1.1 5.6-.1 6.6-2.8.5-1.3.5-2.6 0-3.8-.5-1.3-1.4-2.3-2.8-2.8-1.3-.5-2.5-.5-3.8 0l3 1.3c1.9.8 2.8 3 2 4.9-.6 1.8-2.8 2.6-4.7 1.9zm22.8-18.7c0-3.4-2.6-6-6-6s-6 2.6-6 6 2.6 6 6 6 6-2.7 6-6zm-10.4 0c0-2.5 2-4.6 4.6-4.6 2.5 0 4.6 2 4.6 4.6 0 2.5-2 4.6-4.6 4.6s-4.6-2.1-4.6-4.6z"/>
</svg>